<svg xmlns="http://www.w3.org/2000/svg" viewBox="0 0 1200 630" width="1200" height="630">
  <!-- Background: anoni.net brand cyan-500 -->
  <rect width="1200" height="630" fill="#00aeff"/>

  <!-- Subtle bottom band: cyan-700 for layered depth -->
  <rect x="0" y="600" width="1200" height="30" fill="#0089bf"/>

  <!-- V3 logo (three hexagons), white. Source: anoni-net-docs/docs/zh-TW/assets/images/logo-white.svg
       Original viewBox is 24x24. Scaled by 16x and translated to center-left. -->
  <g transform="translate(120, 155) scale(13.3)">
    <path fill="#ffffff" d="M10.25 2H5.75C5.56 2 5.39 2.11 5.31 2.26L3.09 6.22L3 6.5L3.09 6.78L5.31 10.74C5.39 10.89 5.56 11 5.75 11H10.25C10.44 11 10.61 10.89 10.69 10.74L12.91 6.78L13 6.5L12.91 6.22L10.69 2.26C10.61 2.11 10.44 2 10.25 2M19.5 7.5H15C14.81 7.5 14.64 7.61 14.56 7.76L12.34 11.72L12.25 12L12.34 12.28L14.56 16.24C14.64 16.39 14.81 16.5 15 16.5H19.5C19.69 16.5 19.86 16.39 19.94 16.24L22.16 12.28L22.25 12L22.16 11.72L19.94 7.76C19.86 7.61 19.69 7.5 19.5 7.5M10.25 13H5.75C5.56 13 5.39 13.11 5.31 13.26L3.09 17.22L3 17.5L3.09 17.78L5.31 21.74C5.39 21.89 5.56 22 5.75 22H10.25C10.44 22 10.61 21.89 10.69 21.74L12.91 17.78L13 17.5L12.91 17.22L10.69 13.26C10.61 13.11 10.44 13 10.25 13Z"/>
  </g>

  <!-- Wordmark anoni.net (lowercase, bold, white) -->
  <text x="540" y="305"
        font-family="'Helvetica Neue', Helvetica, Arial, sans-serif"
        font-size="140"
        font-weight="700"
        fill="#ffffff"
        letter-spacing="-2">anoni.net</text>

  <!-- Tagline (English, white 85% opacity) -->
  <text x="540" y="380"
        font-family="'Helvetica Neue', Helvetica, Arial, sans-serif"
        font-size="40"
        font-weight="400"
        fill="#ffffff"
        opacity="0.92">Anonymity Networks Community</text>

  <!-- Subline (Chinese, white 80% opacity) -->
  <text x="540" y="430"
        font-family="'PingFang TC', 'Heiti TC', 'Hiragino Sans', 'Noto Sans CJK TC', sans-serif"
        font-size="34"
        font-weight="400"
        fill="#ffffff"
        opacity="0.85">匿名網路社群．Tor．Tails．OONI</text>
</svg>
